<svg width="100" height="100" viewBox="0 0 100 100" fill="none" xmlns="http://www.w3.org/2000/svg">
<g clip-path="url(#clip0_742_59)">
<path d="M79.56 99.8713H100V97.8713H79.56V83.7812C85.88 83.0713 90.81 77.6913 90.81 71.1913V55.4212C90.81 48.4313 85.12 42.7413 78.13 42.7413C76.53 42.7413 74.99 43.0413 73.58 43.5912C72.47 41.7013 71.01 40.0512 69.3 38.7112C69.78 37.0012 70.05 35.2013 70.05 33.3312C70.05 22.2612 61.08 13.2812 50 13.2812C38.92 13.2812 29.95 22.2612 29.95 33.3312C29.95 33.7912 29.97 34.2412 30 34.6912C27.57 33.6712 24.9 33.1112 22.1 33.1112C10.76 33.1112 1.54 42.3312 1.54 53.6712C1.54 65.0112 10.22 73.6513 21.1 74.1813V97.8713H0V99.8713H21.1M23.1 99.8713H100V97.8713M74.51 45.3713C75.64 44.9613 76.86 44.7413 78.13 44.7413C84.02 44.7413 88.81 49.5312 88.81 55.4212V71.1913C88.81 76.5913 84.77 81.0613 79.56 81.7613V73.6813L82.77 72.3713L82.01 70.5213L79.56 71.5212V65.2513H77.56V81.8412C71.94 81.5412 67.45 76.8913 67.45 71.1913V55.4212C67.45 51.5112 69.56 48.0812 72.71 46.2313C73.28 45.8913 73.88 45.6012 74.51 45.3713ZM31.95 33.3312C31.95 23.3812 40.05 15.2812 50 15.2812C59.95 15.2812 68.05 23.3812 68.05 33.3312C68.05 34.9312 67.83 36.5612 67.38 38.1812L67.02 39.4612L68.07 40.2913C69.57 41.4713 70.82 42.8813 71.78 44.4513C68 46.6512 65.45 50.7412 65.45 55.4212V66.4613C63.35 67.5213 60.97 68.1213 58.46 68.1213C55.95 68.1213 53.28 67.4713 51 66.2213V61.7713L57.36 57.7113L56.29 56.0213L51 59.3913V43.7312H49V49.7313L44.26 47.1413L43.3 48.8913L49 52.0112V66.2113C46.72 67.4613 44.14 68.1113 41.54 68.1113C40.06 68.1113 38.62 67.9012 37.27 67.5112C40.61 63.8512 42.65 58.9912 42.65 53.6613C42.65 45.9613 38.4 39.2412 32.12 35.7212C32 34.9112 31.95 34.1112 31.95 33.3212V33.3312ZM3.54 53.6712C3.54 43.4412 11.86 35.1112 22.1 35.1112C25.04 35.1112 27.83 35.8013 30.3 37.0212C31.14 37.4412 31.94 37.9112 32.7 38.4513C37.5 41.8113 40.65 47.3812 40.65 53.6712C40.65 58.7912 38.57 63.4212 35.22 66.7812C34.71 67.2912 34.17 67.7713 33.59 68.2213C30.67 70.5413 27.05 71.9813 23.1 72.1913V65.9212L28.73 62.3713L27.66 60.6813L23.09 63.5613V59.0513H21.09V72.1913C11.32 71.6613 3.53 63.5713 3.53 53.6813L3.54 53.6712ZM23.1 74.1913C27.89 73.9613 32.27 72.1013 35.65 69.1113C37.49 69.7713 39.47 70.1313 41.54 70.1313C44.21 70.1313 46.74 69.5313 49 68.4713V97.8812H23.1V74.1913ZM51 97.8713V68.4613C53.26 69.5213 55.79 70.1213 58.46 70.1213C60.94 70.1213 63.31 69.6113 65.45 68.6813V71.1913C65.45 77.9913 70.84 83.5412 77.56 83.8412V97.8713H51Z" fill="#264653"/>
<path d="M83.96 26.92C89.45 26.92 93.92 22.45 93.92 16.96C93.92 11.47 89.46 7 83.96 7C78.46 7 74 11.47 74 16.96C74 22.45 78.47 26.92 83.96 26.92ZM83.96 9C88.35 9 91.92 12.57 91.92 16.96C91.92 21.35 88.35 24.92 83.96 24.92C79.57 24.92 76 21.35 76 16.96C76 12.57 79.57 9 83.96 9Z" fill="#264653"/>
</g>
<defs>
<clipPath id="clip0_742_59">
<rect width="100" height="92.87" fill="white" transform="translate(0 7)"/>
</clipPath>
</defs>
</svg>
