<svg width="24" height="24" viewBox="0 0 24 24" fill="none" xmlns="http://www.w3.org/2000/svg">
<mask id="mask0_590_1748" style="mask-type:luminance" maskUnits="userSpaceOnUse" x="3" y="0" width="18" height="24">
<path d="M20.3318 0H3.75781V23.208H20.3318V0Z" fill="white"/>
</mask>
<g mask="url(#mask0_590_1748)">
<path d="M12.0458 2.92748e-06C10.6458 -0.00117407 9.26844 0.352581 8.04232 1.02821C6.8162 1.70384 5.78138 2.67928 5.03456 3.86338C4.28774 5.04749 3.8533 6.4016 3.77184 7.79917C3.69039 9.19674 3.96457 10.5922 4.56878 11.855C5.23408 13.0137 6.05655 14.0748 7.01278 15.008C7.61075 15.6931 8.16677 16.4138 8.67778 17.166C9.86053 18.8807 10.8026 20.7494 11.4778 22.72C11.5086 22.8516 11.5808 22.9699 11.6837 23.0575C11.7866 23.1452 11.9149 23.1975 12.0498 23.207C12.1873 23.2065 12.3202 23.1573 12.4249 23.0682C12.5296 22.979 12.5993 22.8557 12.6218 22.72C13.1581 21.2269 13.8331 19.7873 14.6378 18.42C15.4096 17.0943 16.3197 15.854 17.3528 14.72C18.3748 13.7307 19.1994 12.5562 19.7828 11.259C20.2658 10.0037 20.4359 8.64969 20.2784 7.31393C20.1209 5.97818 19.6405 4.70085 18.8788 3.59234C18.117 2.48383 17.0968 1.57747 15.9063 0.95158C14.7158 0.325687 13.3908 -0.000911831 12.0458 2.92748e-06ZM12.0458 10.7C11.4987 10.7 10.9639 10.5378 10.5091 10.2338C10.0542 9.92992 9.69968 9.49793 9.49033 8.99251C9.28097 8.48708 9.2262 7.93093 9.33292 7.39438C9.43965 6.85783 9.70309 6.36498 10.0899 5.97815C10.4768 5.59131 10.9696 5.32788 11.5062 5.22115C12.0427 5.11442 12.5989 5.1692 13.1043 5.37855C13.6097 5.5879 14.0417 5.94243 14.3456 6.3973C14.6496 6.85216 14.8118 7.38694 14.8118 7.934C14.8118 8.66759 14.5204 9.37113 14.0016 9.88986C13.4829 10.4086 12.7794 10.7 12.0458 10.7Z" fill="#111111"/>
</g>
</svg>
