<svg width="100" height="100" viewBox="0 0 100 100" fill="none" xmlns="http://www.w3.org/2000/svg">
<g clip-path="url(#clip0_742_54)">
<path d="M87.6381 12H12.3581L0.328125 39.07V44.38C0.328125 48.91 3.15812 52.79 7.13812 54.36V99.53H92.8481V54.36C96.8281 52.79 99.6581 48.91 99.6581 44.38V39.07L87.6381 12ZM22.7981 97.24V71.15H38.3081V97.24H22.7981ZM90.8481 97.53H40.2981V69.15H20.7881V97.53H9.13813V54.93C9.75813 55.04 10.3981 55.11 11.0581 55.11C15.3581 55.11 19.0781 52.56 20.7881 48.9C22.4981 52.57 26.2181 55.11 30.5181 55.11C34.8181 55.11 38.5381 52.56 40.2481 48.9C41.9581 52.57 45.6781 55.11 49.9781 55.11C54.2781 55.11 57.9981 52.56 59.7081 48.9C61.4181 52.57 65.1381 55.11 69.4381 55.11C73.7381 55.11 77.4581 52.56 79.1681 48.9C80.8781 52.57 84.5981 55.11 88.8981 55.11C89.5581 55.11 90.1981 55.04 90.8181 54.93V97.53H90.8481ZM97.6681 44.38C97.6681 48.38 94.9681 51.75 91.2981 52.78H90.8581V52.89C90.2381 53.03 89.5981 53.11 88.9381 53.11C84.1181 53.11 80.2081 49.19 80.2081 44.38H78.2081C78.2081 49.2 74.2881 53.11 69.4781 53.11C64.6681 53.11 60.7481 49.19 60.7481 44.38H58.7481C58.7481 49.2 54.8281 53.11 50.0181 53.11C45.2081 53.11 41.2881 49.19 41.2881 44.38H39.2881C39.2881 49.2 35.3681 53.11 30.5581 53.11C25.7481 53.11 21.8281 49.19 21.8281 44.38H19.8281C19.8281 49.2 15.9081 53.11 11.0981 53.11C10.4381 53.11 9.79813 53.03 9.17813 52.89V52.78H8.73812C5.06812 51.75 2.36812 48.38 2.36812 44.38V39.49L13.6581 14H86.3381L97.6681 39.49V44.38Z" fill="#264653"/>
<path d="M52.5 83.865H78.23V63.625H52.5V83.865ZM54.5 65.625H76.23V81.865H54.5V65.625Z" fill="#264653"/>
<path d="M27.1453 81.9062H25.1953V85.7962H27.1453V81.9062Z" fill="#264653"/>
</g>
<defs>
<clipPath id="clip0_742_54">
<rect width="99.34" height="87.53" fill="white" transform="translate(0.328125 12)"/>
</clipPath>
</defs>
</svg>
