<svg width="100" height="100" viewBox="0 0 100 100" fill="none" xmlns="http://www.w3.org/2000/svg">
<g clip-path="url(#clip0_742_28)">
<path d="M83.56 98.0099V89.9403C86.95 89.4527 89.56 86.5572 89.56 83.0547V71.1144C89.56 67.2736 86.42 64.1493 82.56 64.1493C78.7 64.1493 75.56 67.2736 75.56 71.1144V83.0547C75.56 86.5572 78.17 89.4527 81.56 89.9403V98.0099H69.41V21.4627L53.74 12L38.07 21.4627V37.5721L24.37 31.0945L8.7 38.5075V98.0099H0V100H100V98.0099H83.56ZM77.56 83.0547V71.1144C77.56 68.3682 79.8 66.1393 82.56 66.1393C85.32 66.1393 87.56 68.3682 87.56 71.1144V83.0547C87.56 85.4527 85.84 87.4627 83.56 87.9303V79.4527H81.56V87.9303C79.28 87.4726 77.56 85.4627 77.56 83.0547ZM10.71 98.0099V39.7612L24.38 33.2935L38.05 39.7612V98.0099H10.71ZM40.07 98.0099V22.5871L53.74 14.3284L67.41 22.5871V98.0099H40.08H40.07Z" fill="#264653"/>
<path d="M63.6406 86.5216H65.6406V23.1783L63.6406 22.0938V86.5216Z" fill="#264653"/>
<path d="M56.1016 86.5152H58.1016V19.2714L56.1016 18.1172V86.5152Z" fill="#264653"/>
<path d="M59.8594 86.5202H61.8594V21.1869L59.8594 20.0625V86.5202Z" fill="#264653"/>
<path d="M34.1172 86.5218H36.1172V40.5019L34.1172 39.875V86.5218Z" fill="#264653"/>
<path d="M30.1172 86.5213H32.1172V39.178L30.1172 38.5312V86.5213Z" fill="#264653"/>
<path d="M26.1172 86.5189H28.1172V37.6432L26.1172 36.9766V86.5189Z" fill="#264653"/>
</g>
<defs>
<clipPath id="clip0_742_28">
<rect width="100" height="88" fill="white" transform="translate(0 12)"/>
</clipPath>
</defs>
</svg>
