<svg width="100" height="100" viewBox="0 0 100 100" fill="none" xmlns="http://www.w3.org/2000/svg">
<g clip-path="url(#clip0_742_39)">
<path d="M27.8391 48.575L23.8391 23.3672H6.53906L2.53906 48.575H14.1091V93.2615H7.67906V99.9968H22.5491V93.2615H16.1191V48.575H27.8591H27.8391ZM20.5391 98.0041H9.66906V95.2542H20.5391V98.0041ZM8.24906 25.3599H22.1391L25.5091 46.5823H4.87906L8.24906 25.3599Z" fill="#264653"/>
<path d="M92.4731 70.4261H87.2931V61.1999C87.2931 58.6293 85.2031 56.5469 82.6231 56.5469H43.0431C40.4631 56.5469 38.3731 58.6293 38.3731 61.1999V70.4261H33.1931C30.4331 70.4261 28.2031 72.638 28.2031 75.3581V83.7772V95.7833H34.2631V99.9879H36.2631V95.7833H89.8231V99.9879H91.8231V95.7833H96.2931C96.9431 95.7833 97.4731 95.2652 97.4731 94.6176V75.3581C97.4731 72.628 95.2431 70.4261 92.4831 70.4261H92.4731ZM43.0431 58.5496H82.6231C84.0931 58.5496 85.2931 59.7452 85.2931 61.2098V83.7872H40.3731V61.2098C40.3731 59.7452 41.5731 58.5496 43.0431 58.5496ZM95.4631 83.7872V93.8006H30.2031V83.7872V75.368C30.2031 73.744 31.5431 72.4288 33.1931 72.4288H38.3431V85.7899H38.3731V86.1087H87.2931V85.7899H87.3231V72.4288H92.4731C94.1231 72.4288 95.4631 73.7539 95.4631 75.368V83.7872Z" fill="#264653"/>
<path d="M61.1884 18H41.6484V42.3908H61.1884V18ZM59.1884 40.3981H43.6484V19.9927H59.1884V40.3981Z" fill="#264653"/>
<path d="M86.0009 27.6094H66.4609V42.3754H86.0009V27.6094ZM84.0009 40.3926H68.4609V29.612H84.0009V40.3926Z" fill="#264653"/>
</g>
<defs>
<clipPath id="clip0_742_39">
<rect width="94.92" height="82" fill="white" transform="translate(2.53906 18)"/>
</clipPath>
</defs>
</svg>
