<svg width="100" height="100" viewBox="0 0 100 100" fill="none" xmlns="http://www.w3.org/2000/svg">
<g clip-path="url(#clip0_742_48)">
<path d="M69.4441 63.9256C58.7341 53.2156 41.2941 53.2156 30.5741 63.9256L29.1641 62.5156C40.6641 51.0156 59.3641 51.0156 70.8641 62.5156L69.4541 63.9256H69.4441Z" fill="#264653"/>
<path d="M64.4053 68.9656C56.4653 61.0256 43.5453 61.0256 35.6053 68.9656L34.1953 67.5556C42.9153 58.8356 57.1053 58.8356 65.8153 67.5556L64.4053 68.9656Z" fill="#264653"/>
<path d="M59.3744 73.99C54.2144 68.83 45.8144 68.83 40.6444 73.99L39.2344 72.58C45.1744 66.64 54.8444 66.64 60.7844 72.58L59.3744 73.99Z" fill="#264653"/>
<path d="M50.0056 82.605C51.9331 82.605 53.4956 81.0425 53.4956 79.115C53.4956 77.1875 51.9331 75.625 50.0056 75.625C48.0782 75.625 46.5156 77.1875 46.5156 79.115C46.5156 81.0425 48.0782 82.605 50.0056 82.605Z" fill="#264653"/>
<path d="M50.0044 13.75L65.8944 28.77L69.2644 31.96V22.72H80.0044V42.11L80.6344 42.7L88.5044 50.14H80.0144V97.53H20.0044V50.14H11.5144L50.0044 13.75ZM50.0044 11L6.48438 52.13H18.0044V99.52H82.0044V52.13H93.5244L82.0044 41.24V20.72H67.2644V27.32L50.0044 11Z" fill="#264653"/>
</g>
<defs>
<clipPath id="clip0_742_48">
<rect width="87.04" height="88.52" fill="white" transform="translate(6.48438 11)"/>
</clipPath>
</defs>
</svg>
